<?xml version="1.0" encoding="UTF-8" standalone="no"?>
<!DOCTYPE svg PUBLIC "-//W3C//DTD SVG 1.1//EN" "http://www.w3.org/Graphics/SVG/1.1/DTD/svg11.dtd">
<svg width="100%" height="100%" viewBox="0 0 530 364" version="1.1" xmlns="http://www.w3.org/2000/svg" xmlns:xlink="http://www.w3.org/1999/xlink" xml:space="preserve" xmlns:serif="http://www.serif.com/" style="fill-rule:evenodd;clip-rule:evenodd;stroke-linejoin:round;stroke-miterlimit:2;">
    <g id="_レイヤー_1_" serif:id="_レイヤー_1" transform="matrix(1,0,0,1,-37.01,-16.425)">
        <g transform="matrix(1.497512,0,0,1.043117,-25.547264,-39.865749)">
            <rect x="51.35" y="112.85" width="331.65" height="255.12" style="fill:rgb(255,227,162);stroke:rgb(255,219,102);stroke-width:0.93px;"/>
        </g>
    </g>
    <g id="_レイヤー_2_" serif:id="_レイヤー_2" transform="matrix(1,0,0,1,-37.01,-17.425)">
        <g transform="matrix(1,0,0,0.853801,37.01,8.465936)">
            <rect x="0" y="55" width="18" height="342" style="fill:rgb(111,111,111);"/>
        </g>
        <g transform="matrix(1,0,0,0.853801,548.01,9.465936)">
            <rect x="0" y="55" width="18" height="342" style="fill:rgb(111,111,111);"/>
        </g>
        <g transform="matrix(0.755365,0,0,1,37.01,-49.575)">
            <rect x="0" y="368" width="699" height="30" style="fill:rgb(111,111,111);"/>
        </g>
    </g>
    <g id="_レイヤー_3_" serif:id="_レイヤー_3" transform="matrix(1,0,0,1,-37.01,-16.425)">
        <g transform="matrix(1,0,0,1,222,-42)">
            <rect x="249.37" y="337.01" width="48.59" height="11.34" style="fill:rgb(74,187,180);stroke:rgb(35,24,21);stroke-width:1px;stroke-linejoin:miter;stroke-miterlimit:10;"/>
        </g>
    </g>
</svg>
